<svg width="253" height="34" viewBox="0 0 253 34" fill="none" xmlns="http://www.w3.org/2000/svg">
<path d="M29.24 10C29.24 10.32 29.208 10.64 29.144 10.96H22.04V8.08H29.24V10ZM28.856 3.28H0.44V0.399998H24.44C26.552 0.399998 28.024 1.36 28.856 3.28ZM29.24 7.12H0.44V4.24H29.144C29.208 4.56 29.24 4.88 29.24 5.2V7.12ZM29.24 22.48H22.04V19.6H29.144C29.208 19.92 29.24 20.24 29.24 20.56V22.48ZM28.856 11.92C28.024 13.84 26.552 14.8 24.44 14.8H0.44V11.92H28.856ZM29.24 26.32H22.04V23.44H29.24V26.32ZM28.856 18.64H0.44V15.76H24.44C26.552 15.76 28.024 16.72 28.856 18.64ZM7.64 10.96H0.44V8.08H7.64V10.96ZM29.24 29.2C29.24 29.52 29.208 29.84 29.144 30.16H0.44V27.28H29.24V29.2ZM7.64 22.48H0.44V19.6H7.64V22.48ZM28.856 31.12C28.024 33.04 26.552 34 24.44 34H0.44V31.12H28.856ZM7.64 26.32H0.44V23.44H7.64V26.32ZM60.9275 10C60.9275 10.32 60.8955 10.64 60.8315 10.96H53.7275V8.08H60.9275V10ZM60.5435 3.28H32.1275V0.399998H56.1275C58.2395 0.399998 59.7115 1.36 60.5435 3.28ZM60.9275 7.12H32.1275V4.24H60.8315C60.8955 4.56 60.9275 4.88 60.9275 5.2V7.12ZM60.9275 22.48H53.7275V19.6H60.8315C60.8955 19.92 60.9275 20.24 60.9275 20.56V22.48ZM60.5435 11.92C59.7115 13.84 58.2395 14.8 56.1275 14.8H32.1275V11.92H60.5435ZM60.9275 26.32H53.7275V23.44H60.9275V26.32ZM60.5435 18.64H32.1275V15.76H56.1275C58.2395 15.76 59.7115 16.72 60.5435 18.64ZM60.9275 30.16H53.7275V27.28H60.9275V30.16ZM39.3275 10.96H32.1275V8.08H39.3275V10.96ZM60.9275 34H53.7275V31.12H60.9275V34ZM39.3275 22.48H32.1275V19.6H39.3275V22.48ZM39.3275 26.32H32.1275V23.44H39.3275V26.32ZM39.3275 30.16H32.1275V27.28H39.3275V30.16ZM39.3275 34H32.1275V31.12H39.3275V34ZM86.087 3.28H74.663L75.815 0.399998H84.935L86.087 3.28ZM87.623 7.12H73.127L74.279 4.24H86.471L87.623 7.12ZM90.695 14.8H82.535L81.383 11.92H89.543L90.695 14.8ZM89.159 10.96H80.999L80.375 9.376L79.751 10.96H71.591L72.743 8.08H88.007L89.159 10.96ZM92.231 18.64H84.071L82.919 15.76H91.079L92.231 18.64ZM96.839 30.16H88.679L87.527 27.28H95.687L96.839 30.16ZM79.367 11.92L78.215 14.8H70.055L71.207 11.92H79.367ZM98.375 34H90.215L89.063 31.12H97.223L98.375 34ZM93.767 22.48H66.983L68.135 19.6H92.615L93.767 22.48ZM77.831 15.76L76.679 18.64H68.519L69.671 15.76H77.831ZM95.303 26.32H65.447L66.599 23.44H94.151L95.303 26.32ZM73.223 27.28L72.071 30.16H63.911L65.063 27.28H73.223ZM71.687 31.12L70.535 34H62.375L63.527 31.12H71.687ZM128.615 10.96H121.415V8.08H128.615V10.96ZM128.231 3.28H99.815V0.399998H123.815C125.927 0.399998 127.399 1.36 128.231 3.28ZM128.615 14.8H121.415V11.92H128.615V14.8ZM128.615 7.12H99.815V4.24H128.519C128.583 4.56 128.615 4.88 128.615 5.2V7.12ZM128.615 18.64H121.415V15.76H128.615V18.64ZM128.615 22.48H121.415V19.6H128.615V22.48ZM128.615 26.32H121.415V23.44H128.615V26.32ZM107.015 10.96H99.815V8.08H107.015V10.96ZM107.015 14.8H99.815V11.92H107.015V14.8ZM107.015 18.64H99.815V15.76H107.015V18.64ZM128.615 29.2C128.615 29.52 128.583 29.84 128.519 30.16H99.815V27.28H128.615V29.2ZM107.015 22.48H99.815V19.6H107.015V22.48ZM128.231 31.12C127.399 33.04 125.927 34 123.815 34H99.815V31.12H128.231ZM107.015 26.32H99.815V23.44H107.015V26.32ZM157.903 3.28H131.887C132.719 1.36 134.191 0.399998 136.303 0.399998H157.903V3.28ZM157.903 7.12H131.503V5.2C131.503 4.88 131.535 4.56 131.599 4.24H157.903V7.12ZM157.903 14.8H131.503V11.92H157.903V14.8ZM157.903 18.64H131.503V15.76H157.903V18.64ZM138.703 10.96H131.503V8.08H138.703V10.96ZM138.703 22.48H131.503V19.6H138.703V22.48ZM138.703 26.32H131.503V23.44H138.703V26.32ZM138.703 30.16H131.503V27.28H138.703V30.16ZM138.703 34H131.503V31.12H138.703V34ZM189.599 10.96H182.399V8.08H189.599V10.96ZM189.215 3.28H161.183C162.015 1.36 163.487 0.399998 165.599 0.399998H184.799C186.911 0.399998 188.383 1.36 189.215 3.28ZM189.599 14.8H182.399V11.92H189.599V14.8ZM189.599 7.12H160.799V5.2C160.799 4.88 160.831 4.56 160.895 4.24H189.503C189.567 4.56 189.599 4.88 189.599 5.2V7.12ZM189.599 18.64H182.399V15.76H189.599V18.64ZM189.599 22.48H182.399V19.6H189.599V22.48ZM189.599 26.32H182.399V23.44H189.599V26.32ZM167.999 10.96H160.799V8.08H167.999V10.96ZM167.999 14.8H160.799V11.92H167.999V14.8ZM167.999 18.64H160.799V15.76H167.999V18.64ZM189.599 29.2C189.599 29.52 189.567 29.84 189.503 30.16H160.895C160.831 29.84 160.799 29.52 160.799 29.2V27.28H189.599V29.2ZM167.999 22.48H160.799V19.6H167.999V22.48ZM189.215 31.12C188.383 33.04 186.911 34 184.799 34H165.599C163.487 34 162.015 33.04 161.183 31.12H189.215ZM167.999 26.32H160.799V23.44H167.999V26.32ZM221.287 10C221.287 10.32 221.255 10.64 221.191 10.96H214.087V8.08H221.287V10ZM220.903 3.28H192.487V0.399998H216.487C218.599 0.399998 220.071 1.36 220.903 3.28ZM221.287 7.12H192.487V4.24H221.191C221.255 4.56 221.287 4.88 221.287 5.2V7.12ZM221.287 22.48H214.087V19.6H221.191C221.255 19.92 221.287 20.24 221.287 20.56V22.48ZM220.903 11.92C220.071 13.84 218.599 14.8 216.487 14.8H192.487V11.92H220.903ZM221.287 26.32H214.087V23.44H221.287V26.32ZM220.903 18.64H192.487V15.76H216.487C218.599 15.76 220.071 16.72 220.903 18.64ZM221.287 30.16H214.087V27.28H221.287V30.16ZM199.687 10.96H192.487V8.08H199.687V10.96ZM221.287 34H214.087V31.12H221.287V34ZM199.687 22.48H192.487V19.6H199.687V22.48ZM199.687 26.32H192.487V23.44H199.687V26.32ZM199.687 30.16H192.487V27.28H199.687V30.16ZM199.687 34H192.487V31.12H199.687V34ZM252.974 10.96H245.774V8.08H252.974V10.96ZM252.59 3.28H224.174V0.399998H248.174C250.286 0.399998 251.758 1.36 252.59 3.28ZM252.974 14.8H245.774V11.92H252.974V14.8ZM252.974 7.12H224.174V4.24H252.878C252.942 4.56 252.974 4.88 252.974 5.2V7.12ZM252.974 18.64H245.774V15.76H252.974V18.64ZM252.974 22.48H245.774V19.6H252.974V22.48ZM252.974 26.32H245.774V23.44H252.974V26.32ZM231.374 10.96H224.174V8.08H231.374V10.96ZM231.374 14.8H224.174V11.92H231.374V14.8ZM231.374 18.64H224.174V15.76H231.374V18.64ZM252.974 29.2C252.974 29.52 252.942 29.84 252.878 30.16H224.174V27.28H252.974V29.2ZM231.374 22.48H224.174V19.6H231.374V22.48ZM252.59 31.12C251.758 33.04 250.286 34 248.174 34H224.174V31.12H252.59ZM231.374 26.32H224.174V23.44H231.374V26.32Z" fill="white"/>
</svg>
